<svg width="45" height="115" viewBox="0 0 45 115" fill="none" xmlns="http://www.w3.org/2000/svg">
<path d="M15.7936 30.8657C17.3979 31.3225 18.6778 32.7628 18.9393 34.4124C18.9986 34.7925 19.0161 35.2006 19.2358 35.5179C19.4659 35.8562 19.9019 36.062 19.9925 36.4595C20.0902 36.8815 19.738 37.3523 19.9402 37.7394C20.146 38.13 20.7772 38.1335 20.976 38.5276C21.1922 38.967 20.7005 39.5146 20.8993 39.961C21.0806 40.369 21.6596 40.3585 22.0397 40.5887C22.3919 40.8014 22.5698 41.2339 22.5698 41.6454C22.5698 42.0569 22.4128 42.4545 22.228 42.8207C21.126 45.0003 18.8835 46.486 16.4911 46.9742C14.0987 47.4625 11.5773 47.0335 9.3244 46.0884C8.78734 45.8652 8.2433 45.5967 7.88409 45.1398C7.52488 44.683 7.40282 43.9925 7.74808 43.5251C7.87711 43.3508 8.06543 43.2148 8.15611 43.016C8.48393 42.3185 7.44466 41.6105 7.59811 40.8572C7.68181 40.4492 8.07938 40.2016 8.42115 39.961C8.76292 39.7203 9.11167 39.3576 9.02448 38.9496C8.98263 38.7508 8.83616 38.5834 8.78734 38.3846C8.66528 37.8685 9.20583 37.4674 9.5476 37.0594C10.1579 36.334 10.1928 35.3052 10.3114 34.3671C10.6357 31.7724 13.2513 30.1438 15.7936 30.8691V30.8657Z" fill="#96432A"/>
<path d="M15.7517 31.7901C17.2652 32.2191 18.4719 33.5792 18.7195 35.1346C18.7753 35.4938 18.7927 35.8774 18.9985 36.1773C19.2147 36.4947 19.6297 36.69 19.7134 37.0666C19.8041 37.4677 19.4728 37.9106 19.6646 38.2733C19.8564 38.643 20.4562 38.643 20.6411 39.0196C20.8468 39.4346 20.3795 39.9508 20.5678 40.3727C20.7387 40.7564 21.2828 40.7494 21.6455 40.9656C21.9803 41.1644 22.1477 41.5724 22.1442 41.963C22.1442 42.3501 21.9942 42.7268 21.8198 43.072C20.7806 45.1296 18.6672 46.5281 16.4073 46.9919C14.1474 47.4558 11.7725 47.0477 9.6486 46.155C9.14291 45.9422 8.63026 45.6911 8.29198 45.2587C7.95369 44.8297 7.8386 44.1741 8.16294 43.7347C8.285 43.5707 8.46286 43.4417 8.55004 43.2534C8.85694 42.5943 7.88045 41.9282 8.02344 41.2167C8.10365 40.8331 8.47681 40.5959 8.80114 40.3727C9.12199 40.1461 9.4533 39.8043 9.3696 39.4207C9.32775 39.2323 9.19174 39.0754 9.1464 38.8871C9.03132 38.3988 9.54048 38.0222 9.86482 37.6386C10.4402 36.955 10.4716 35.9855 10.5832 35.0997C10.8901 32.6515 13.3558 31.117 15.7551 31.8006L15.7517 31.7901Z" fill="#6C301E"/>
<path d="M30.7552 37.2722C30.7657 36.9862 30.5738 36.7212 30.3332 36.5678C30.0926 36.4143 29.8066 36.348 29.5241 36.2957C28.7011 36.1388 27.8641 36.0551 27.0271 36.0481C26.5947 36.0446 26.2215 36.3515 26.1378 36.777C26.0959 36.9932 26.0541 37.2129 26.0436 37.4187C25.4752 37.8093 25.4961 38.6881 25.5938 39.3717C24.272 40.54 22.1063 42.1965 20.394 42.6325C18.6816 43.0649 16.8542 43.7798 16.0311 45.3422C15.4592 46.4268 15.4871 47.7137 15.5394 48.9378C15.5778 49.8271 15.6684 50.8349 16.8402 51.1279C17.2064 51.2186 17.5935 51.2046 17.9667 51.1349C20.3626 50.671 21.8936 48.5995 23.9791 47.344C25.9704 46.1478 27.9966 44.8679 29.3323 42.9672C30.668 41.0666 32.0246 39.2182 30.7552 37.2722Z" fill="#FF941E"/>
<path d="M30.9644 40.2784C31.362 39.288 31.4213 38.294 30.7552 37.2722C30.7657 36.9862 30.5739 36.7212 30.3332 36.5678C30.0926 36.4143 29.8066 36.348 29.5241 36.2957C28.7011 36.1388 27.8641 36.0551 27.0271 36.0481C26.5947 36.0446 26.2215 36.3515 26.1378 36.777C26.096 36.9932 26.0541 37.2129 26.0436 37.4187C25.4752 37.8093 25.4961 38.6881 25.5938 39.3717C24.272 40.54 22.1063 42.1965 20.394 42.6324C18.6816 43.0649 16.8542 43.7798 16.0311 45.3422C15.4592 46.4268 15.4871 47.7137 15.5394 48.9378C15.5464 49.1366 15.5603 49.3423 15.5848 49.5446C21.2135 47.6858 26.9574 44.7598 30.9644 40.2819V40.2784Z" fill="#FF941E"/>
<path d="M15.5847 49.5409C15.6719 50.2419 15.93 50.901 16.8402 51.1277C17.2064 51.2184 17.5935 51.2044 17.9666 51.1347C20.3625 50.6708 21.8935 48.5993 23.979 47.3438C25.9704 46.1476 27.9966 44.8677 29.3323 42.967C29.967 42.0638 30.6052 41.1745 30.9644 40.2782C26.9573 44.7561 21.2135 47.6821 15.5847 49.5409Z" fill="#A86114"/>
<path d="M26.5803 28.7313L26.378 36.5641C26.3641 37.143 26.7965 37.6417 27.3754 37.6871C27.8393 37.7219 28.4252 37.6696 29.0529 37.3697C29.4819 37.1639 29.719 36.6931 29.6492 36.2258L28.5089 28.5918C28.5089 28.5918 27.4905 28.5081 26.5838 28.7347L26.5803 28.7313Z" fill="#FFC9B9"/>
<path d="M28.2127 41.049C27.3129 40.9165 26.4969 40.4038 25.9703 39.6645C25.8866 39.5459 25.7227 39.6994 25.8064 39.8145C26.3713 40.6026 27.2502 41.1292 28.2057 41.2722C28.3487 41.2931 28.3557 41.0699 28.2162 41.049H28.2127Z" fill="#A86114"/>
<path d="M28.7949 38.3078C28.1149 38.3078 27.4453 38.1299 26.8594 37.7812C26.7373 37.708 26.6153 37.8963 26.7373 37.9695C27.3546 38.3392 28.066 38.5345 28.7845 38.531C28.9275 38.531 28.9379 38.3078 28.7949 38.3078Z" fill="#A86114"/>
<path d="M14.9353 41.893C13.4392 41.4955 11.821 41.5862 10.3807 42.1546C9.70761 42.4197 8.98571 42.9323 9.01012 43.6577C9.03454 44.2854 9.61694 44.7353 10.168 45.0318C12.2116 46.1338 14.6598 46.4616 16.9197 45.942C18.0217 45.6874 19.1168 44.7772 18.1298 43.7065C17.3138 42.8207 16.0862 42.2034 14.9353 41.8965V41.893Z" fill="#FF941E"/>
<path d="M10.13 44.6238C8.53273 44.8784 7.23889 46.1792 6.30076 47.6056C5.36263 49.032 4.66514 50.6467 3.63634 51.9963C2.78889 53.1053 1.73219 54.0225 0.975407 55.2083C0.218628 56.3905 -0.196376 57.9948 0.417417 59.2747C1.00331 60.4918 2.36342 61.0533 3.62588 61.0707C4.54657 61.0812 5.53003 60.8161 6.12639 60.0558C6.57278 59.4909 6.74367 58.7167 6.71925 57.9703C6.71577 57.8204 6.70182 57.6704 6.68089 57.5205C6.57278 56.6591 6.89712 55.8151 7.47952 55.2222C7.66436 55.0339 7.83175 54.8247 7.97474 54.6259C9.00703 53.1821 9.96957 51.6406 10.4648 49.8969C10.96 48.1531 10.9879 46.1967 10.13 44.6273V44.6238Z" fill="#FF941E"/>
<path d="M10.3212 50.3468C10.3701 50.1968 10.4224 50.0468 10.4677 49.8934C10.9629 48.1497 10.9908 46.1932 10.1329 44.6238C8.53566 44.8784 7.24182 46.1792 6.30369 47.6056C5.36557 49.032 4.66807 50.6467 3.63927 51.9963C2.79182 53.1053 1.73512 54.0225 0.97834 55.2083C0.221562 56.394 -0.193448 57.9948 0.420345 59.2747C1.00624 60.4918 2.36635 61.0533 3.62881 61.0707C4.5495 61.0812 5.53296 60.8161 6.12932 60.0558C6.57571 59.4909 6.7466 58.7167 6.72219 57.9703C6.71521 57.8204 6.70475 57.6704 6.68382 57.5205C6.68034 57.4856 6.68033 57.4542 6.67685 57.4193C6.35949 56.7497 6.01074 56.1499 5.56086 55.5466C7.36737 54.0783 9.05878 52.3242 10.3212 50.3468Z" fill="#FF941E"/>
<path d="M5.55835 55.5464C6.00823 56.1463 6.35698 56.7496 6.67434 57.4192C6.6011 56.5927 6.91846 55.7905 7.47994 55.2221C7.66477 55.0338 7.83217 54.8245 7.97516 54.6257C8.91677 53.311 9.79561 51.909 10.3222 50.3501C9.05975 52.331 7.36834 54.0817 5.56184 55.5499L5.55835 55.5464Z" fill="#A86114"/>
<path d="M17.032 69.7229C17.8934 68.6801 18.6153 67.606 18.7409 66.8178L7.21483 64.6905C6.85562 65.6286 6.31855 66.5807 6.03955 67.5432C9.50957 68.8406 13.3876 69.7682 17.0285 69.7229H17.032Z" fill="#1D253D"/>
<path d="M15.3691 112.019L17.7615 111.953C18.4276 112.647 22.4382 113.519 22.6719 114.45H14.8181C14.9053 113.62 15.0832 112.804 15.3691 112.016V112.019Z" fill="white"/>
<path d="M22.6675 114.453C22.6885 114.544 22.7129 114.631 22.7303 114.722C22.7582 114.865 22.6536 114.997 22.5071 114.997H15.0126C14.88 114.997 14.7754 114.886 14.7859 114.753C14.7929 114.652 14.8033 114.554 14.8138 114.453H22.6675Z" fill="#465A94"/>
<path d="M21.2201 66.0714C17.7501 67.3687 16.1458 66.8631 12.5049 66.8177C12.1876 68.8718 13.4605 73.2556 13.4605 73.2556L13.6069 76.4675H22.5C22.4651 72.8266 22.1129 69.1787 21.2201 66.0749V66.0714Z" fill="#1D253D"/>
<path d="M13.6075 76.4646L13.7086 77.9886L22.4029 78.0898C22.4761 77.5562 22.511 77.0121 22.497 76.4646H13.604H13.6075Z" fill="#006CB0"/>
<path d="M11.6227 112.019L9.23032 111.953C8.56421 112.647 7.46218 113.519 7.22852 114.45H12.1702C12.0831 113.62 11.9052 112.804 11.6192 112.016L11.6227 112.019Z" fill="white"/>
<path d="M7.23184 114.453C7.21091 114.544 7.18651 114.631 7.16907 114.722C7.14117 114.865 7.24579 114.997 7.39227 114.997H11.9748C12.1073 114.997 12.2119 114.886 12.2015 114.753C12.1945 114.652 12.184 114.554 12.1736 114.453H7.23184Z" fill="#465A94"/>
<path d="M13.6109 73.2523C13.6109 73.2523 15.536 71.5295 17.0321 69.7195C13.3912 69.7649 9.51314 68.8407 6.04311 67.5399C5.20961 70.4379 4.80157 73.4372 4.67603 76.4608H13.4644L13.6109 73.2488V73.2523Z" fill="#465A94"/>
<path d="M4.6759 76.4646C4.61661 77.0052 4.62359 77.5492 4.68287 78.0898H13.4643V76.4646H4.6759Z" fill="#0081C9"/>
<path d="M20.282 58.2108C20.2959 53.9457 20.7458 50.4826 20.9167 46.221C20.9341 45.7502 20.7911 45.2201 20.3831 45.0108C14.2905 41.9 9.78472 44.4214 8.79428 45.1398C8.2886 45.506 8.06889 46.1721 8.2607 46.7824C9.36971 50.3222 9.27554 53.5934 8.68616 57.2553C8.22582 60.115 5.1464 63.4734 5.92061 67.1632C10.8275 69.3603 16.7073 69.144 22.0885 68.1187C23.5183 65.5554 20.275 60.5405 20.2855 58.2108H20.282Z" fill="#FF941E"/>
<path d="M13.0662 38.1894C13.2894 39.961 13.3905 41.7536 13.3696 43.5357C13.3661 43.8949 13.4951 44.2436 13.7113 44.4354C14.3077 44.9655 15.0366 45.1678 15.6887 44.9725C16.0235 44.8714 16.2258 44.3971 16.163 43.8984C16.0131 42.7545 15.9154 41.6629 15.8492 40.4702C15.0959 39.2845 14.1194 38.5974 13.0662 38.1894Z" fill="#FFC9B9"/>
<path d="M15.8492 40.4702C15.0959 39.2845 14.1194 38.5974 13.0662 38.1894C13.1254 38.6567 13.1743 39.124 13.2161 39.5914C13.9345 41.0212 14.9564 42.4441 16.0689 43.0962C15.9712 42.2348 15.898 41.3804 15.8492 40.4702Z" fill="#FFAB90"/>
<path d="M20.1493 67.4978C18.5171 67.9686 16.8327 68.2337 15.1343 68.2825C13.4394 68.3348 11.7375 68.1779 10.081 67.8152C9.14633 67.6094 8.22564 67.3374 7.32587 66.9991C7.18986 66.9468 7.1236 67.163 7.25613 67.2119C8.85687 67.8117 10.5308 68.2058 12.2292 68.3906C13.9346 68.5789 15.6644 68.551 17.3663 68.3174C18.3253 68.1849 19.2704 67.9826 20.2016 67.7141C20.3376 67.6757 20.2922 67.456 20.1528 67.4943L20.1493 67.4978Z" fill="#A86114"/>
<path d="M17.8199 34.8833C18.4442 37.6349 17.7292 40.8399 17.0004 40.9515C14.5905 41.3247 12.9898 39.0752 12.9758 39.0473C12.9898 39.0752 12.6306 39.274 12.4178 39.3124C12.2086 39.3508 11.8738 39.1729 11.7204 39.0299C11.4239 38.7544 11.0752 38.301 11.2182 37.8686C11.3925 37.349 12.1772 37.0944 12.5678 37.5617C13.3002 36.1388 12.6654 35.3995 12.6375 34.3672C13.8303 33.436 15.3752 33.028 16.9201 33.1431C17.1782 33.1605 17.7606 34.6322 17.8199 34.8868V34.8833Z" fill="#FFC9B9"/>
<path d="M15.0337 36.118C15.0162 36.0901 14.9953 36.0691 14.9674 36.0517C14.9395 36.0343 14.9116 36.0238 14.8802 36.0203C14.8488 36.0133 14.8174 36.0133 14.7826 36.0203C14.7616 36.0273 14.7407 36.0377 14.7198 36.0447C14.6814 36.0656 14.6535 36.0935 14.6291 36.1319C14.6221 36.1493 14.6117 36.1703 14.6047 36.1877C14.5908 36.2296 14.5908 36.2714 14.6047 36.3167L14.6117 36.3412C14.6187 36.3725 14.6326 36.4039 14.6535 36.4283C14.671 36.4562 14.6919 36.4772 14.7198 36.4946C14.7477 36.512 14.7756 36.5225 14.807 36.526C14.8384 36.533 14.8697 36.533 14.9046 36.526L14.9674 36.5016C15.0058 36.4807 15.0337 36.4528 15.0581 36.4144C15.065 36.397 15.0755 36.376 15.0825 36.3586C15.0964 36.3167 15.0964 36.2749 15.0825 36.2296L15.0755 36.2051C15.0685 36.1738 15.0546 36.1424 15.0337 36.118Z" fill="#3B1411"/>
<path d="M17.3838 35.7027C17.3663 35.6748 17.3454 35.6539 17.3175 35.6365C17.2896 35.619 17.2617 35.6086 17.2303 35.6051C17.1989 35.5981 17.1675 35.5981 17.1327 35.6051C17.1117 35.6121 17.0908 35.6225 17.0699 35.6295C17.0315 35.6504 17.0036 35.6783 16.9792 35.7167C16.9722 35.7341 16.9618 35.755 16.9548 35.7725C16.9408 35.8143 16.9408 35.8562 16.9548 35.9015L16.9618 35.9259C16.9687 35.9573 16.9827 35.9887 17.0036 36.0131C17.0211 36.041 17.042 36.0619 17.0699 36.0794C17.0978 36.0968 17.1257 36.1073 17.1571 36.1108C17.1885 36.1177 17.2198 36.1177 17.2547 36.1108L17.3175 36.0864C17.3559 36.0654 17.3838 36.0375 17.4082 35.9992C17.4151 35.9817 17.4256 35.9608 17.4326 35.9434C17.4465 35.9015 17.4465 35.8597 17.4326 35.8143L17.4256 35.7899C17.4186 35.7585 17.4047 35.7271 17.3838 35.7027Z" fill="#3B1411"/>
<path d="M12.4146 38.5242C12.3448 38.5661 12.2332 38.5556 12.1949 38.4719C12.174 38.4301 12.1879 38.3882 12.2088 38.3464C12.2263 38.308 12.2611 38.2766 12.2995 38.2662C12.3623 38.2522 12.3937 38.179 12.3623 38.1232C12.2297 37.886 11.9612 37.6768 11.6752 37.7779C11.5497 37.8233 11.4486 37.9244 11.4241 38.0604C11.4137 38.1232 11.4241 38.186 11.452 38.2418C11.4695 38.2731 11.5357 38.3534 11.5741 38.2976C11.5985 38.2627 11.5776 38.2278 11.5811 38.1895C11.5811 38.1511 11.5881 38.1127 11.602 38.0744C11.6299 38.0011 11.6962 37.9593 11.7729 37.9453C11.9263 37.9244 12.0519 38.0186 12.1391 38.1337C12.0205 38.2278 11.9682 38.3952 12.0484 38.5382C12.1321 38.6951 12.3483 38.7579 12.5018 38.6672C12.5959 38.6114 12.5122 38.4615 12.4216 38.5208L12.4146 38.5242Z" fill="#FFAB90"/>
<path d="M15.3786 34.6672C14.8729 34.7125 14.3917 34.9043 13.9871 35.2077C13.872 35.2949 14.022 35.4623 14.1371 35.3751C14.5102 35.0961 14.9566 34.9287 15.4239 34.8869C15.4832 34.8799 15.5216 34.8101 15.5111 34.7543C15.4972 34.6916 15.4414 34.6602 15.3786 34.6672Z" fill="#6C301E"/>
<path d="M17.6488 34.7266C17.4047 34.4965 17.0629 34.3918 16.7316 34.4616C16.6758 34.4755 16.6304 34.5348 16.6444 34.5941C16.6583 34.6534 16.7141 34.6952 16.7769 34.6813C16.8118 34.6743 16.8467 34.6673 16.8815 34.6639H16.8955C16.899 34.6639 16.906 34.6639 16.9094 34.6639C16.9269 34.6639 16.9443 34.6639 16.9583 34.6639C16.9931 34.6639 17.028 34.6673 17.0629 34.6743C17.0733 34.6743 17.0803 34.6743 17.0908 34.6778H17.1012C17.1047 34.6778 17.1187 34.6813 17.1222 34.6813C17.1326 34.6813 17.1396 34.6848 17.1501 34.6883C17.1815 34.6987 17.2128 34.7092 17.2442 34.7197C17.2582 34.7266 17.2756 34.7336 17.2896 34.7406C17.2931 34.7406 17.2931 34.7406 17.2965 34.7406C17.3035 34.7441 17.314 34.7475 17.321 34.7545C17.3489 34.772 17.3768 34.7894 17.4047 34.8068C17.4186 34.8173 17.436 34.8278 17.45 34.8417C17.4535 34.8452 17.457 34.8487 17.4639 34.8522L17.4779 34.8661C17.5232 34.908 17.5895 34.9184 17.6348 34.8766C17.6767 34.8382 17.6871 34.7615 17.6453 34.7197L17.6488 34.7266Z" fill="#6C301E"/>
<path d="M16.8408 39.5564C16.5967 39.5913 16.3526 39.6262 16.1084 39.6645C16.0492 39.6715 16.0073 39.7378 16.0213 39.797C16.0352 39.8598 16.091 39.8947 16.1538 39.8842C16.3979 39.8494 16.642 39.8145 16.8861 39.7761C16.9454 39.7691 16.9873 39.7029 16.9733 39.6436C16.9594 39.5808 16.9036 39.5459 16.8408 39.5564Z" fill="#FFAB90"/>
<path d="M17.1542 37.4153C17.074 37.2898 16.945 37.213 16.8159 37.1433C16.7113 37.0875 16.5962 37.0282 16.5544 36.9062C16.5335 36.8504 16.4532 36.8329 16.4044 36.8573C16.3451 36.8852 16.3347 36.9515 16.3556 37.0073C16.4463 37.2549 16.7218 37.3002 16.9031 37.4572C16.9799 37.5234 17.0252 37.6106 16.9694 37.7048C16.9031 37.8164 16.7741 37.8792 16.6869 37.9733C16.6451 38.0152 16.6346 38.0849 16.6764 38.1303C16.7148 38.1721 16.7915 38.1826 16.8334 38.1407C16.938 38.0326 17.074 37.9594 17.1542 37.8303C17.2344 37.7013 17.2414 37.5444 17.1577 37.4153H17.1542Z" fill="#FFAB90"/>
<path d="M16.8122 38.9256C16.7843 38.8663 16.718 38.8523 16.6622 38.8767C16.3414 38.9988 15.9787 39.0127 15.6474 38.9221C15.5881 38.9046 15.5253 38.9325 15.5044 38.9918C15.487 39.0476 15.5149 39.1174 15.5741 39.1348C15.9682 39.2464 16.3798 39.2255 16.7634 39.079C16.8192 39.0581 16.8401 38.9779 16.8122 38.929V38.9256Z" fill="#3B1411"/>
<path d="M11.8325 61.1719C11.6198 62.5181 10.8491 63.7457 9.74006 64.5373C9.62148 64.621 9.77493 64.7849 9.89002 64.7012C11.0513 63.8747 11.836 62.5878 12.0557 61.1824C12.0767 61.0394 11.8535 61.0324 11.8325 61.1719Z" fill="#A86114"/>
<path d="M18.8 60.8579C16.5088 60.9242 14.2175 60.9904 11.9298 61.0567C11.7868 61.0602 11.7763 61.2834 11.9193 61.2799C14.2106 61.2136 16.5018 61.1474 18.7896 61.0811C18.9326 61.0776 18.943 60.8544 18.8 60.8579Z" fill="#A86114"/>
<path d="M20.1882 63.69C19.3059 63.0937 18.7967 62.03 18.8804 60.9698C18.8909 60.8268 18.6677 60.8163 18.6572 60.9593C18.57 62.0962 19.121 63.2366 20.0661 63.8749C20.1847 63.9551 20.3068 63.7667 20.1882 63.6865V63.69Z" fill="#A86114"/>
<path d="M11.5741 62.1485L4.63402 56.8929C4.63402 56.8929 2.98097 57.7474 3.06118 59.9445L10.5697 63.7946C10.5697 63.7946 11.2323 63.0169 11.5741 62.1485Z" fill="#FFC9B9"/>
<path d="M4.69334 56.8126C3.39252 57.4159 2.59738 58.8771 2.77524 60.2965C2.79268 60.4395 3.01239 60.3872 2.99495 60.2477C2.82756 58.9259 3.5948 57.5693 4.79797 57.0113C4.927 56.952 4.82587 56.7533 4.69334 56.8126Z" fill="#A86114"/>
<path d="M5.84064 56.7846C5.25824 56.0766 4.23292 55.829 3.38547 56.1673C3.25294 56.2196 3.35757 56.4184 3.49009 56.3661C4.24687 56.0627 5.16059 56.3103 5.67673 56.9345C5.7674 57.0461 5.9348 56.8927 5.84064 56.7846Z" fill="#A86114"/>
<path d="M9.10495 49.7994C9.09449 49.6564 8.87129 49.6459 8.88175 49.7889C9.03171 51.9267 8.97591 54.0785 8.71435 56.2058C8.69691 56.3488 8.92011 56.3593 8.93755 56.2163C9.19911 54.089 9.25491 51.9372 9.10495 49.7994Z" fill="#A86114"/>
<path d="M16.7812 43.6578C16.7358 43.5218 16.5161 43.5706 16.5615 43.7066C16.7393 44.2332 16.4673 44.7389 16.1569 45.1539C16.0139 45.3458 15.864 45.555 15.6757 45.705C15.4629 45.8724 15.2397 45.841 15.027 45.6945C14.8317 45.5585 14.6573 45.3911 14.462 45.2481C14.2598 45.0981 14.0505 44.9586 13.8343 44.8331C13.4053 44.582 12.952 44.3832 12.4777 44.2298C11.9929 44.0728 11.3512 43.881 11.271 43.2881C11.2501 43.1452 11.0339 43.1975 11.0513 43.337C11.1245 43.874 11.6197 44.1705 12.0871 44.3344C12.6416 44.5297 13.1786 44.7145 13.6913 45.0075C13.9354 45.1505 14.1726 45.3074 14.3993 45.4783C14.612 45.6422 14.8073 45.8479 15.0514 45.9665C15.571 46.2246 15.9407 45.7817 16.2371 45.412C16.6277 44.9203 16.9974 44.303 16.7812 43.6543V43.6578Z" fill="#A86114"/>
<path d="M13.1643 46.4196C13.119 46.2836 12.8993 46.3324 12.9446 46.4684C13.4294 47.8565 13.5654 49.3421 13.3317 50.7929C13.3108 50.9359 13.534 50.9429 13.5549 50.8034C13.7886 49.3351 13.6526 47.8216 13.1608 46.4196H13.1643Z" fill="white"/>
<path d="M17.0807 46.0988C17.0388 45.9628 16.8191 46.0116 16.861 46.1476C17.3667 47.7484 17.4573 49.4642 17.1086 51.1068C17.0807 51.2463 17.2934 51.3161 17.3213 51.1766C17.6771 49.4956 17.5968 47.7379 17.0772 46.0988H17.0807Z" fill="white"/>
<path d="M9.2341 111.953L7.86352 104.503C7.39969 101.978 7.19393 96.7228 7.25322 94.1525L7.31599 91.4393L5.09448 78.0893H13.0145L10.8767 91.8473L11.1627 93.2214C11.7904 96.245 12.0415 102.02 11.9125 105.103L11.623 112.019L9.23061 111.953H9.2341Z" fill="#FFC9B9"/>
<path d="M22.4021 78.0896L17.7568 111.956H15.3644L14.9599 102.802C14.8448 100.172 15.2284 94.8538 16.0968 92.3673L14.0461 77.9919L22.4021 78.0896Z" fill="#FFC9B9"/>
<path d="M13.018 78.0893H5.09448L5.21654 78.8077H12.9064L13.018 78.0893Z" fill="#FFAB90"/>
<path d="M10.8797 91.8475L12.9059 78.8079H5.21606L7.319 91.4394L7.25623 94.1527C7.19694 96.7195 7.4027 101.975 7.86654 104.503L9.2371 111.953L11.6295 112.019L11.919 105.103C12.048 102.017 11.7969 96.2417 11.1692 93.2215L10.8832 91.8475H10.8797Z" fill="#FFC9B9"/>
<path d="M22.4021 78.0896L14.0461 77.9919L14.1647 78.808H22.3044L22.4021 78.0896Z" fill="#FFAB90"/>
<path d="M14.1646 78.8079L16.1001 92.3671C15.2317 94.8537 14.8446 100.169 14.9632 102.802L15.3677 111.956H17.7601L22.3078 78.8114H14.168L14.1646 78.8079Z" fill="#FFC9B9"/>
<path d="M28.5332 29.0418V29.0208L29.8933 26.4715L28.432 25.3625L26.9847 25.917L26.7267 28.0443C26.6255 28.3617 26.6116 28.5849 26.5872 28.9267L28.5297 29.0418H28.5332Z" fill="#FFC9B9"/>
<path d="M28.2716 0.0122681L33.3041 10.2061L44.5546 11.8417L36.4114 19.7757L38.333 30.9809L28.2716 25.6904L18.2103 30.9809L20.1319 19.7757L11.9922 11.8417L23.2392 10.2061L28.2716 0.0122681Z" fill="#FEB12F"/>
<path d="M16.4875 11.1863L11.9922 11.8384L20.1319 19.7724L18.2103 30.9776L28.2716 25.6871L38.333 30.9776L36.7008 21.4673C28.8715 21.1325 21.0945 17.4742 16.484 11.1828L16.4875 11.1863Z" fill="#FEA30A"/>
<path d="M26.9991 28.7454C27.306 28.5397 27.5118 28.0688 27.4979 27.5945C27.4874 27.1203 27.2572 26.6704 26.9399 26.4925C26.8841 25.7288 26.3854 25.1324 25.8413 24.9999C26.2319 26.2449 26.483 27.5736 26.5876 28.9268L26.9957 28.7454H26.9991Z" fill="#FFC9B9"/>
<path d="M26.5567 25.3729C26.7555 25.4775 26.8217 25.7774 26.8671 26.039C26.8915 26.1889 26.9159 26.3528 26.9856 26.4784C27.0589 26.6039 27.1774 26.6632 27.2751 26.7539C27.4669 26.9352 27.5959 27.2038 27.6238 27.5281C27.6517 27.8803 27.5576 28.2291 27.4704 28.5534C27.4425 28.6615 27.3274 28.5778 27.3588 28.4697C27.4425 28.1628 27.5297 27.828 27.4948 27.4967C27.4599 27.1689 27.289 26.9562 27.0937 26.8027C27.0066 26.7365 26.9263 26.6597 26.8705 26.5481C26.8182 26.4435 26.7903 26.318 26.7659 26.1924C26.7241 25.9518 26.6962 25.6309 26.5009 25.5333C26.4241 25.4949 26.4834 25.338 26.5602 25.3764L26.5567 25.3729Z" fill="#FFAB90"/>
<path d="M15.8424 33.3172C15.6367 33.5718 15.3193 33.7567 15.0229 33.945C14.7264 34.1368 14.437 34.3565 14.3219 34.646C14.1929 34.9738 14.3114 35.326 14.2975 35.6678C14.28 36.1177 14.015 36.5606 13.5895 36.857C13.1606 37.1534 12.5782 37.2999 12.0132 37.2546C11.9539 36.1804 11.9086 35.047 12.5503 34.0984C12.9688 33.4812 13.6767 32.9964 14.4928 32.7383C15.1798 32.5186 16.6411 32.3303 15.8494 33.3138L15.8424 33.3172Z" fill="#6C301E"/>
</svg>
