<svg width="47" height="132" viewBox="0 0 47 132" fill="none" xmlns="http://www.w3.org/2000/svg">
<path d="M11.0457 21.2352V41.7234H2.04441C1.24589 41.7234 0.599609 41.074 0.599609 40.2755V22.6831C0.599609 21.8846 1.24899 21.2383 2.04441 21.2383H11.0457V21.2352Z" fill="#1D253D"/>
<path d="M46.0847 30.9355C45.1588 39.6478 40.2123 41.7234 40.2123 41.7234H11.0459V21.2351C19.23 19.6598 23.1294 9.58035 22.2843 4.5282C22.4334 3.39099 22.4366 2.33458 22.2905 1.43973C22.8684 -0.290927 24.5742 0.0570689 24.5742 0.0570689C30.2012 0.939487 30.5212 12.6129 30.4777 16.4191C30.4684 17.0778 30.9749 17.6309 31.6367 17.6775C33.7868 17.8235 38.4754 18.2492 42.5861 19.3242C45.2831 20.0296 46.4017 20.738 46.7341 22.2791C47.0852 23.9072 46.5601 26.4675 46.0847 30.9355Z" fill="#FEA30A"/>
<path d="M11.0457 21.2349V38.6036H2.04441C1.24589 38.6036 0.599609 37.9542 0.599609 37.1588V22.6828C0.599609 21.8842 1.24899 21.238 2.04441 21.238H11.0457V21.2349Z" fill="#465A94"/>
<path d="M46.7341 22.2791C46.5912 23.7021 46.3302 25.5042 46.0847 27.8159C45.1588 36.5283 40.2123 38.6038 40.2123 38.6038H11.0459V21.2351C15.1255 20.4521 18.301 17.4351 20.2243 13.8681C21.6132 11.2954 22.0451 8.39651 22.2315 5.51623C22.3402 3.83217 21.6846 -0.53331 24.5742 0.0539328C30.2012 0.936351 30.5212 12.6098 30.4777 16.416C30.4684 17.0747 30.9749 17.6277 31.6367 17.6743C33.7868 17.8204 38.4754 18.246 42.5861 19.3211C45.2831 20.0264 46.4017 20.7348 46.7341 22.276V22.2791Z" fill="#FEB12F"/>
<path d="M35.0764 41.7233H39.4668L37.3446 44.0412V46.5517H34.2251V44.3829C34.2251 43.8858 34.3307 43.3949 34.5327 42.9413L35.0764 41.7264V41.7233Z" fill="#BF6D3E"/>
<path d="M34.9518 43.7271C35.4303 43.4941 35.7504 42.9627 35.7317 42.4314C35.7131 41.9001 35.3589 41.3936 34.8648 41.1917C34.7778 40.3341 34.0011 39.6599 33.1528 39.5107C33.7618 40.9152 34.1564 42.4097 34.318 43.9322L34.9518 43.7271Z" fill="#BF6D3E"/>
<path d="M34.2652 39.9273C34.576 40.0423 34.6816 40.384 34.7468 40.6761C34.7872 40.8439 34.8214 41.0303 34.9333 41.1701C35.0482 41.3131 35.2347 41.3783 35.3807 41.4808C35.679 41.6859 35.884 41.9873 35.9213 42.3508C35.9648 42.7485 35.8188 43.14 35.6821 43.5067C35.6386 43.6279 35.4615 43.5315 35.505 43.4135C35.6324 43.0686 35.7722 42.6895 35.7163 42.3167C35.6603 41.95 35.3962 41.7108 35.0886 41.5368C34.955 41.4622 34.8307 41.3783 34.7406 41.2478C34.6598 41.1297 34.6132 40.9868 34.5791 40.847C34.5107 40.5736 34.4672 40.2163 34.1658 40.1044C34.0446 40.0609 34.141 39.8838 34.259 39.9273H34.2652Z" fill="#80410E"/>
<path d="M6.63424 41.7233H2.2439L4.36605 44.0412V46.5517H7.48559V44.3829C7.48559 43.8858 7.37994 43.3949 7.17798 42.9413L6.63424 41.7264V41.7233Z" fill="#BF6D3E"/>
<path d="M25.3042 64.52C27.9235 62.8173 30.3097 60.7573 32.3791 58.4176C33.1093 54.2945 33.5318 49.8762 33.8363 45.7002C35.1164 45.5728 36.5519 45.5045 37.8321 45.6226C38.7953 51.2371 39.1712 56.8703 38.789 62.5532C35.2656 66.0363 31.5029 69.9264 27.9794 73.4125L25.3073 64.5231L25.3042 64.52Z" fill="#465A94"/>
<path d="M38.4008 59.9963C38.6121 59.7011 38.783 59.3966 38.929 59.0859C38.9135 60.2387 38.8669 61.3945 38.7892 62.5535C35.2657 66.0365 31.503 69.9266 27.9796 73.4128L27.3582 71.3466C31.2607 67.8355 35.1135 64.2437 38.4039 59.9963H38.4008Z" fill="#1D253D"/>
<path d="M34.1564 47.6798C35.0451 47.7015 35.9337 47.7233 36.8223 47.7419C36.9497 47.7419 36.9591 47.9439 36.8317 47.9408C35.943 47.919 35.0544 47.8973 34.1658 47.8786C34.0384 47.8786 34.029 47.6767 34.1564 47.6798Z" fill="#1D253D"/>
<path d="M16.3678 64.52C13.7485 62.8173 11.3622 60.7573 9.29291 58.4176C8.56274 54.2945 8.14017 49.8762 7.83567 45.7002C6.55555 45.5728 5.12006 45.5045 3.83993 45.6226C2.87673 51.2371 2.50077 56.8703 2.88295 62.5532C6.4064 66.0363 10.1691 69.9264 13.6926 73.4125L16.3647 64.5231L16.3678 64.52Z" fill="#465A94"/>
<path d="M13.8643 70.368C13.9233 71.036 13.97 71.7041 14.0072 72.3721L13.6965 73.4099C10.1731 69.9268 6.41036 66.0367 2.8869 62.5505C2.78437 61.0436 2.73776 59.5397 2.74087 58.039C4.6766 63.203 9.05762 67.1584 13.8674 70.3649L13.8643 70.368Z" fill="#1D253D"/>
<path d="M4.0583 47.8319C5.23589 47.7729 6.41348 47.7138 7.58797 47.6517C7.71536 47.6455 7.72468 47.8443 7.59729 47.8505C6.4197 47.9096 5.2421 47.9686 4.06762 48.0308C3.94023 48.037 3.9309 47.8381 4.0583 47.8319Z" fill="#1D253D"/>
<path d="M12.1616 126.666C12.1616 127.154 12.1647 127.629 12.1709 128.086H15.0014L15.1599 126.666H12.1584H12.1616Z" fill="#001E4A"/>
<path d="M26.1811 126.666C26.1811 127.154 26.1842 127.629 26.1904 128.086H29.021L29.1794 126.666H26.178H26.1811Z" fill="#001E4A"/>
<path d="M29.2785 88.0662C21.7748 88.8927 20.6904 93.1836 20.6904 93.1836L23.7199 111.074L25.3107 127.461H30.3597C31.8853 106.97 29.2816 88.0631 29.2816 88.0631L29.2785 88.0662Z" fill="#1D253D"/>
<path d="M22.7072 92.9382C22.7072 92.9382 26.0443 90.8005 26.4358 88.93L12.9105 89.3743C12.9105 89.3743 11.0276 113.535 11.0804 126.666H16.2413L22.7072 92.9382Z" fill="#465A94"/>
<path d="M22.3282 94.9173L16.2414 127.461H11.0805C11.0401 117.692 12.0748 101.02 12.603 93.5315C15.7474 94.5444 19.0347 95.054 22.3251 94.9173H22.3282Z" fill="#465A94"/>
<path d="M12.6052 93.5312C12.7885 90.9554 12.9128 89.3708 12.9128 89.3708L26.4381 88.9265C26.0466 90.7969 22.7095 92.9346 22.7095 92.9346L22.3305 94.917C19.0369 95.0568 15.7527 94.5441 12.6083 93.5312H12.6052Z" fill="#1D253D"/>
<path d="M25.2892 90.8067C25.951 90.1418 26.532 89.3836 26.6811 88.6628L14.0197 88.0631C14.0197 88.0631 13.9171 89.424 13.8674 89.9895C17.6426 90.8688 21.5016 91.1951 25.286 90.8067H25.2892Z" fill="#1D253D"/>
<path d="M15.1635 127.871L11.8483 127.781C10.9254 128.741 10.2667 129.953 9.9436 131.245H15.9279C15.8067 130.096 15.5613 128.962 15.1635 127.874V127.871Z" fill="#001E4A"/>
<path d="M9.9461 131.242C9.91503 131.366 9.88396 131.49 9.8591 131.615C9.82182 131.81 9.96785 131.994 10.1667 131.994H15.6539C15.8372 131.994 15.9832 131.838 15.9677 131.655C15.9552 131.515 15.9428 131.379 15.9273 131.239H9.943L9.9461 131.242Z" fill="#A86114"/>
<path d="M26.0036 127.871L29.3189 127.781C30.2417 128.741 35.8034 129.953 36.1266 131.245H25.2393C25.3604 130.096 25.6059 128.962 26.0036 127.874V127.871Z" fill="#001E4A"/>
<path d="M36.1237 131.242C36.1548 131.366 36.1859 131.49 36.2107 131.615C36.248 131.81 36.102 131.994 35.9031 131.994H25.513C25.3296 131.994 25.1836 131.838 25.1991 131.655C25.2116 131.515 25.224 131.379 25.2395 131.239H36.1268L36.1237 131.242Z" fill="#A86114"/>
<path d="M14.787 112.385C14.3768 111.68 13.9449 110.99 13.6063 110.248C13.2614 109.496 13.0159 108.713 12.7673 107.924C12.7363 107.827 12.5996 107.868 12.6182 107.964C12.7673 108.781 13.0625 109.577 13.3981 110.335C13.7336 111.09 14.122 111.848 14.6409 112.497C14.7093 112.581 14.8398 112.472 14.787 112.385Z" fill="#1D253D"/>
<path d="M11.9035 126.181H15.1939C15.3213 126.181 15.3306 126.38 15.2033 126.38H11.9128C11.7854 126.38 11.7761 126.181 11.9035 126.181Z" fill="#1D253D"/>
<path d="M27.9387 66.9374C27.8984 66.0581 27.2863 65.2968 26.3759 64.9675C24.4495 64.2653 22.2869 64.0509 20.1834 64.1907C18.2508 64.3181 16.3555 64.7313 14.5005 65.2751C13.2918 65.6293 12.5368 66.7106 12.7232 67.8198C13.8294 74.4348 14.2053 81.2487 13.7766 87.9383C18.7355 89.3769 23.6789 89.7964 28.3675 88.1589C28.526 81.3109 28.2588 73.7948 27.9387 66.9374Z" fill="#A6F3FF"/>
<path d="M20.9544 66.0951C20.4137 66.3717 19.9011 66.7073 19.4381 67.1019C19.2361 66.729 19.0528 66.3468 18.8602 65.9709C18.7545 65.7658 18.6489 65.5576 18.5401 65.3526C18.4376 65.1537 18.3444 64.9238 18.2015 64.7467C18.1424 64.6752 18.0306 64.7529 18.0523 64.8337C18.1083 65.0449 18.2356 65.25 18.3351 65.4427C18.4407 65.657 18.5495 65.8745 18.6582 66.0889C18.8695 66.5115 19.0963 66.9279 19.2952 67.3566C19.3325 67.4343 19.435 67.4281 19.4909 67.3815C19.9818 66.9651 20.5069 66.5985 21.0755 66.294C21.2091 66.2225 21.0911 66.0268 20.9575 66.092L20.9544 66.0951Z" fill="#47BED1"/>
<path d="M22.9113 66.0983C22.9051 65.9181 22.8989 65.7379 22.8958 65.5577C22.8958 65.3961 22.9331 65.1817 22.8554 65.0357C22.8274 64.9829 22.7435 64.9829 22.7156 65.0357C22.6379 65.1755 22.6721 65.3806 22.6752 65.536C22.6752 65.7224 22.6814 65.9119 22.6907 66.0983C22.7031 66.3997 22.7249 66.698 22.7497 66.9994C22.5012 66.8565 22.2526 66.7167 22.0072 66.5768C21.8549 66.4898 21.7027 66.4059 21.5473 66.3221C21.395 66.2382 21.2459 66.1356 21.0719 66.1046C21.0129 66.0921 20.9725 66.1574 21.0129 66.2071C21.1278 66.3407 21.2925 66.4153 21.4417 66.5054C21.5908 66.5955 21.743 66.6825 21.8953 66.7695C22.206 66.9466 22.5136 67.1237 22.8243 67.3008C22.8927 67.3381 23.0014 67.2915 22.9921 67.2045C22.9548 66.8378 22.93 66.4712 22.9144 66.1014L22.9113 66.0983Z" fill="#47BED1"/>
<path d="M21.0137 66.204L20.3083 66.7601L20.6595 67.3132L20.5942 86.0584L21.9924 86.7886L23.1824 86.0584L21.5419 67.4189L21.7438 66.6825L21.0137 66.204Z" fill="#DD4F05"/>
<path d="M12.2978 69.1498C12.0585 67.5496 12.7141 65.8158 14.0067 65.3467C14.973 64.9955 16.1941 64.6631 17.2692 64.5854C18.1423 68.23 21.7403 75.6747 21.7403 75.6747C21.7403 75.6747 24.5398 67.1519 22.893 64.2157C23.9432 64.1597 25.9473 64.458 27.0006 64.9955C27.9918 65.502 28.6132 67.1332 28.6878 68.3978C29.1476 76.2184 30.608 84.3435 31.2232 92.2759C30.4588 92.6333 29.4614 92.6426 28.6381 92.7141C27.2989 92.8352 25.9535 92.8974 24.6112 92.9471C20.2551 93.1087 15.9486 92.9688 11.8286 91.3842C12.4252 83.9551 13.3915 76.5509 12.2916 69.1498H12.2978Z" fill="#465A94"/>
<path d="M13.8637 70.3676C14.4913 77.43 13.8823 84.6167 12.5276 91.6357C12.2977 91.5549 12.0646 91.4741 11.8347 91.384C12.4282 84.0046 13.3821 76.647 12.3194 69.2987C12.829 69.6653 13.3417 70.0227 13.8637 70.3676Z" fill="#1D253D"/>
<path d="M24.282 70.7994L25.7578 70.2929C25.8821 70.2494 26.0033 70.209 26.1276 70.1655C26.2363 70.1282 26.3544 70.1003 26.4538 70.0443C26.6651 69.9263 26.5843 69.6746 26.5222 69.4882C26.1959 68.4877 25.8635 67.4903 25.5341 66.4898C25.4937 66.3686 25.6833 66.3065 25.7237 66.4277C26.0033 67.279 26.2829 68.1273 26.5626 68.9786C26.6278 69.1775 26.7055 69.3732 26.7552 69.5752C26.7925 69.7212 26.8112 69.8859 26.7428 70.0257C26.6713 70.1655 26.5315 70.2339 26.3886 70.2836C26.1835 70.3551 25.9784 70.4234 25.7703 70.4949C25.2918 70.6596 24.8164 70.8211 24.3379 70.9858C24.2167 71.0262 24.1546 70.8367 24.2758 70.7963L24.282 70.7994Z" fill="#1D253D"/>
<path d="M24.4092 70.8523C24.9654 71.4271 25.5216 72.005 26.0778 72.5798C26.1679 72.6731 26.0312 72.8191 25.9442 72.7259L24.2756 70.9983C24.1855 70.9051 24.3222 70.7591 24.4092 70.8523Z" fill="#1D253D"/>
<path d="M22.1535 77.3245C23.415 75.743 24.6733 74.1615 25.9348 72.58C26.0156 72.4805 26.1617 72.6142 26.0809 72.7136C24.8194 74.2951 23.561 75.8766 22.2995 77.4581C22.2187 77.5576 22.0727 77.424 22.1535 77.3245Z" fill="#1D253D"/>
<path d="M18.1985 71.1505L16.6667 70.8553C16.5393 70.8304 16.4119 70.8056 16.2845 70.7807C16.1726 70.759 16.0515 70.7497 15.9458 70.7062C15.719 70.6192 15.7656 70.3582 15.7998 70.1655C15.9831 69.1309 16.1726 68.0962 16.3591 67.0584C16.3808 66.931 16.1851 66.8969 16.1633 67.0242C16.0049 67.9036 15.8464 68.786 15.6879 69.6653C15.6507 69.8704 15.604 70.0785 15.5792 70.2836C15.5637 70.4327 15.5668 70.6005 15.6569 70.7279C15.747 70.8584 15.8961 70.9019 16.0421 70.933C16.2565 70.9765 16.4678 71.0138 16.6822 71.0573C17.1762 71.1536 17.6734 71.2468 18.1674 71.3431C18.2948 71.368 18.329 71.1722 18.2016 71.1474L18.1985 71.1505Z" fill="#1D253D"/>
<path d="M18.0801 71.2192C17.6109 71.8686 17.1386 72.5149 16.6694 73.1643C16.5949 73.2668 16.7471 73.3942 16.8248 73.2917C17.294 72.6423 17.7662 71.996 18.2354 71.3466C18.31 71.2441 18.1577 71.1167 18.0801 71.2192Z" fill="#1D253D"/>
<path d="M21.212 77.3151C19.7424 75.9231 18.2758 74.5342 16.8062 73.1422C16.713 73.0552 16.5856 73.2075 16.6788 73.2976C18.1484 74.6896 19.615 76.0784 21.0847 77.4704C21.1779 77.5574 21.3053 77.4052 21.212 77.3151Z" fill="#1D253D"/>
<path d="M21.8396 76.0068C21.9825 78.2377 22.0944 80.4718 22.1721 82.7089C22.2529 84.9429 22.2995 87.18 22.3181 89.4171C22.3274 90.6755 22.3274 91.937 22.3181 93.1954C22.3181 93.3228 22.1193 93.3321 22.1193 93.2047C22.1379 90.9676 22.1255 88.7305 22.082 86.4964C22.0385 84.2593 21.9608 82.0253 21.8552 79.7913C21.7961 78.5329 21.7247 77.2777 21.6439 76.0193C21.6345 75.8919 21.8365 75.8826 21.8427 76.01L21.8396 76.0068Z" fill="#1D253D"/>
<path d="M25.3014 86.1549C26.4758 86.4842 27.7311 86.4345 28.8745 86.0119C28.9957 85.9684 29.0547 86.158 28.9367 86.2015C27.7622 86.6365 26.4634 86.6893 25.2579 86.3506C25.1336 86.3164 25.1771 86.1207 25.3014 86.1549Z" fill="#1D253D"/>
<path d="M14.575 86.4189C15.7495 86.7482 17.0048 86.6985 18.1482 86.276C18.2694 86.2325 18.3284 86.422 18.2104 86.4655C17.0359 86.9005 15.7371 86.9533 14.5315 86.6146C14.4073 86.5805 14.4508 86.3847 14.575 86.4189Z" fill="#1D253D"/>
<path d="M24.5649 57.9333C24.9191 56.7215 24.829 55.3886 24.3225 54.2327C24.3909 53.95 24.335 53.6206 24.192 53.369C24.0491 53.1173 23.8223 52.9153 23.5706 52.7724C23.2288 52.5829 22.8156 52.4928 22.4427 52.6077C22.0699 52.7196 21.753 53.0583 21.7374 53.4497C21.4485 53.2758 21.2061 53.1049 20.8861 52.993C20.566 52.8811 20.2149 52.8377 19.8918 52.9309C19.5656 53.0241 19.2735 53.2695 19.1834 53.5927C19.0902 53.9189 19.2393 54.3104 19.5469 54.4471C19.2983 54.1457 18.7266 54.0867 18.3662 54.2421C18.0058 54.3974 17.7479 54.7299 17.5956 55.0903C17.4745 55.3762 17.4092 55.6962 17.4651 56.0038C17.5211 56.3114 17.7106 56.6004 17.9934 56.7309C17.4589 56.9981 17.2849 57.6474 17.3968 58.2347C17.5086 58.8219 17.8784 59.3253 18.2668 59.7789C18.6552 60.2326 19.0839 60.6676 19.3512 61.202L24.568 57.9302L24.5649 57.9333Z" fill="#7A2923"/>
<path d="M24.3943 58.0574C24.7082 56.8923 24.6305 55.6059 24.1799 54.4967C24.239 54.2233 24.1924 53.9095 24.0619 53.6671C23.9345 53.4247 23.7325 53.229 23.5088 53.0923C23.2043 52.909 22.8377 52.8251 22.5052 52.9338C22.1728 53.0426 21.8931 53.3688 21.8776 53.7448C21.6197 53.577 21.4053 53.4123 21.1226 53.3036C20.8398 53.1948 20.526 53.1544 20.237 53.2445C19.9481 53.3346 19.6902 53.5708 19.6063 53.8815C19.5224 54.1922 19.656 54.5713 19.9294 54.7049C19.7088 54.4128 19.1993 54.3569 18.8792 54.5091C18.5592 54.6583 18.3293 54.9783 18.1926 55.3263C18.0838 55.6028 18.0279 55.9104 18.0776 56.2056C18.1273 56.5008 18.2951 56.7804 18.5468 56.9047C18.0714 57.1626 17.916 57.7871 18.0154 58.3526C18.1149 58.9181 18.4411 59.4028 18.7891 59.8378C19.1371 60.2728 19.5162 60.6923 19.7554 61.2049L24.3943 58.0543V58.0574Z" fill="#3B1411"/>
<path d="M18.8762 59.5925C19.0035 61.205 18.9663 62.8301 18.7643 64.4364C18.7239 64.7596 18.8606 65.0827 19.1309 65.2691C19.8704 65.788 20.815 66.0149 21.7005 65.8812C22.151 65.8129 22.468 65.3996 22.4307 64.9429C22.3437 63.8989 22.3188 62.9077 22.3437 61.8296C21.4613 60.711 20.234 60.0275 18.8762 59.5894V59.5925Z" fill="#BF6D3E"/>
<path d="M22.3438 61.8328C21.4613 60.7142 20.234 60.0306 18.8762 59.5925C18.9104 60.0182 18.929 60.4408 18.9415 60.8664C19.4759 62.6592 20.8679 63.7747 22.3841 64.2128C22.3406 63.4298 22.3251 62.6561 22.3438 61.8296V61.8328Z" fill="#80410E"/>
<path d="M24.5831 56.9637C24.8845 59.2164 24.4122 63.0723 22.7126 63.2494C20.7147 63.4545 19.4874 61.6772 19.04 60.0397C19.0462 60.0677 18.8567 60.1733 18.6609 60.164C18.4683 60.1516 18.2135 59.9248 18.1079 59.7694C17.9059 59.4649 17.6977 58.9895 17.9152 58.6415C18.1793 58.2221 18.7604 58.1382 19.0089 58.6291C18.9903 57.8088 19.2575 57.0507 19.5402 56.2864C19.6335 56.0347 19.8292 55.8358 20.084 55.7457C21.2398 55.3449 22.6567 55.32 23.8312 55.6711C24.1232 55.7581 24.3438 55.9974 24.4308 56.2895C24.4992 56.5287 24.5582 56.7835 24.5831 56.9699V56.9637Z" fill="#BF6D3E"/>
<path d="M22.1726 57.1037C21.809 56.6438 20.8116 56.9607 20.445 57.2559C20.3766 57.3087 20.2959 57.3802 20.3052 57.4734C20.3083 57.5231 20.3363 57.5666 20.386 57.5791C20.4978 57.6101 20.6066 57.5169 20.6998 57.4672C20.8241 57.402 20.9546 57.3522 21.0913 57.3212C21.2591 57.2839 21.4362 57.2746 21.6071 57.2901C21.7748 57.3087 21.9333 57.3864 22.1011 57.3616C22.2316 57.3429 22.2347 57.1782 22.1694 57.0975L22.1726 57.1037Z" fill="#3B1411"/>
<path d="M21.6445 57.9112C21.6352 57.8833 21.6196 57.8615 21.5979 57.8398C21.5792 57.818 21.5544 57.8025 21.5264 57.7932C21.5016 57.7807 21.4705 57.7714 21.4425 57.7745C21.4239 57.7745 21.4021 57.7807 21.3835 57.7838C21.3462 57.7932 21.312 57.8118 21.2872 57.8398C21.2747 57.8553 21.2654 57.8708 21.253 57.8833C21.2344 57.9175 21.2219 57.9547 21.2219 57.9951V58.02C21.2219 58.0511 21.2281 58.079 21.2406 58.1039C21.2499 58.1318 21.2654 58.1536 21.2872 58.1753C21.3058 58.1971 21.3307 58.2126 21.3586 58.222C21.3835 58.2344 21.4146 58.2437 21.4425 58.2406L21.5016 58.2313C21.5388 58.222 21.573 58.2033 21.5979 58.1753C21.6103 58.1598 21.6196 58.1443 21.6321 58.1318C21.6507 58.0977 21.6631 58.0604 21.6631 58.02V57.9951C21.6631 57.9641 21.6569 57.9361 21.6445 57.9112Z" fill="#3B1411"/>
<path d="M24.0647 58.048C24.0553 58.0201 24.0398 57.9983 24.018 57.9766C23.9994 57.9548 23.9745 57.9393 23.9466 57.9299C23.9217 57.9175 23.8907 57.9082 23.8627 57.9113C23.8441 57.9113 23.8223 57.9175 23.8037 57.9206C23.7664 57.93 23.7322 57.9486 23.7073 57.9766C23.6949 57.9921 23.6856 58.0076 23.6732 58.0201C23.6545 58.0542 23.6421 58.0915 23.6421 58.1319V58.1568C23.6421 58.1878 23.6483 58.2158 23.6607 58.2407C23.6701 58.2686 23.6856 58.2904 23.7073 58.3121C23.726 58.3339 23.7508 58.3494 23.7788 58.3587C23.8037 58.3712 23.8347 58.3805 23.8627 58.3774L23.9217 58.3681C23.959 58.3587 23.9932 58.3401 24.018 58.3121C24.0305 58.2966 24.0398 58.2811 24.0522 58.2686C24.0709 58.2344 24.0833 58.1972 24.0833 58.1568V58.1319C24.0833 58.1008 24.0771 58.0729 24.0647 58.048Z" fill="#3B1411"/>
<path d="M24.5031 57.4238C24.4161 57.256 24.2328 57.1722 24.0557 57.1256C23.8817 57.0789 23.7046 57.0727 23.5306 57.1162C23.4498 57.1349 23.4001 57.2188 23.4125 57.2996C23.4312 57.4332 23.5461 57.4394 23.6518 57.4394C23.7947 57.4394 23.9314 57.4611 24.065 57.517C24.1551 57.5543 24.6243 57.7905 24.5311 57.4922C24.5249 57.4673 24.5156 57.4456 24.5031 57.4269V57.4238Z" fill="#3B1411"/>
<path d="M22.4366 61.8327C22.3714 61.8109 22.2906 61.8327 22.2222 61.8327C22.1601 61.8327 22.0855 61.8296 22.0327 61.8202C21.9674 61.8109 21.9022 61.7985 21.8369 61.7798C21.7655 61.7612 21.7002 61.7301 21.6257 61.7363C21.548 61.7426 21.52 61.8233 21.5666 61.8824C21.6163 61.9476 21.6971 61.9694 21.7717 61.9942C21.8431 62.0191 21.9146 62.0346 21.9861 62.0471C22.0638 62.0595 22.1383 62.0657 22.216 62.0688C22.2937 62.0688 22.3962 62.0781 22.4646 62.0377C22.5485 61.988 22.5298 61.8606 22.4366 61.8327Z" fill="#804E26"/>
<path d="M18.8294 59.4713C18.7611 59.4962 18.6617 59.4589 18.6461 59.3781C18.6368 59.3377 18.6586 59.3035 18.6834 59.2693C18.7083 59.2383 18.7456 59.2196 18.7797 59.2196C18.8357 59.2196 18.8823 59.1637 18.8636 59.1078C18.7984 58.8716 18.6088 58.6293 18.3354 58.6572C18.2142 58.6697 18.1055 58.738 18.0527 58.8499C18.0278 58.9027 18.0247 58.9617 18.0371 59.0146C18.0465 59.0456 18.0868 59.1295 18.1303 59.0891C18.1583 59.0643 18.149 59.027 18.1583 58.9959C18.1676 58.9617 18.1832 58.9307 18.2018 58.8996C18.2422 58.8406 18.3106 58.8188 18.3789 58.825C18.5187 58.8375 18.6057 58.9493 18.6586 59.0705C18.5343 59.1264 18.4535 59.2662 18.4908 59.4092C18.5312 59.5645 18.7083 59.6639 18.8605 59.6173C18.9537 59.5894 18.9133 59.4402 18.8201 59.4713H18.8294Z" fill="#804E26"/>
<path d="M23.509 59.1886C23.4065 59.0923 23.2791 59.0301 23.1641 58.9494C23.0367 58.8592 22.987 58.7598 23.0026 58.6045C23.0119 58.4988 22.8721 58.4864 22.8223 58.5547C22.6732 58.766 22.8783 59.027 23.0461 59.1482C23.1486 59.2228 23.2636 59.2725 23.3506 59.3626C23.4282 59.4403 23.4873 59.5397 23.5214 59.6453C23.5898 59.8628 23.5556 60.099 23.4127 60.2761C23.2604 60.4687 23.0523 60.5184 22.8255 60.5775C22.754 60.5961 22.7571 60.6987 22.8255 60.7173C23.0616 60.7888 23.3257 60.6614 23.4997 60.5091C23.6892 60.3413 23.7949 60.0959 23.7918 59.8442C23.7887 59.5987 23.6861 59.3502 23.5059 59.1824L23.509 59.1886Z" fill="#80410E"/>
<path d="M22.7507 61.3789C22.0329 61.5902 21.2593 61.3106 20.8491 60.6861C20.7777 60.5773 20.9455 60.4717 21.0169 60.5773C21.3805 61.1242 22.0578 61.3758 22.6885 61.1894C22.8128 61.1521 22.875 61.3417 22.7507 61.3789Z" fill="#3B1411"/>
<path d="M28.7313 68.1276C28.8866 71.1104 29.1539 74.0839 29.5422 77.045C29.651 77.8746 29.7691 78.7042 29.8965 79.5307C29.9151 79.6581 29.7162 79.6643 29.6976 79.54C29.2471 76.5882 28.9084 73.6209 28.6909 70.6443C28.6288 69.8085 28.579 68.9758 28.5355 68.14C28.5293 68.0126 28.7282 68.0033 28.7344 68.1307L28.7313 68.1276Z" fill="#1D253D"/>
<path d="M6.75795 43.7271C6.27946 43.4941 5.95943 42.9627 5.97807 42.4314C5.99671 41.9001 6.35092 41.3936 6.84495 41.1917C6.93195 40.3341 7.70873 39.6599 8.55697 39.5107C7.94797 40.9152 7.55337 42.4097 7.3918 43.9322L6.75795 43.7271Z" fill="#BF6D3E"/>
<path d="M7.44418 39.9273C7.13347 40.0423 7.02783 40.384 6.96258 40.6761C6.92219 40.8439 6.88801 41.0303 6.77615 41.1701C6.66119 41.3131 6.47476 41.3783 6.32873 41.4808C6.03045 41.6859 5.82538 41.9873 5.78809 42.3508C5.74459 42.7485 5.89063 43.14 6.02734 43.5067C6.07084 43.6279 6.24794 43.5315 6.20444 43.4135C6.07705 43.0686 5.93723 42.6895 5.99316 42.3167C6.04909 41.95 6.31319 41.7108 6.6208 41.5368C6.7544 41.4622 6.87869 41.3783 6.96879 41.2478C7.04958 41.1297 7.09618 40.9868 7.13036 40.847C7.19872 40.5736 7.24222 40.2163 7.54361 40.1044C7.66478 40.0609 7.56846 39.8838 7.45039 39.9273H7.44418Z" fill="#80410E"/>
</svg>
