<svg width="58" height="47" viewBox="0 0 58 47" fill="none" xmlns="http://www.w3.org/2000/svg">
<g clip-path="url(#clip0_144_2915)">
<path d="M33.7793 5.78705L29.0057 10.2223L24.232 5.78705H0V42.6765C0 42.6765 14.8779 34.6216 28.767 42.7771C28.767 42.7771 28.9261 42.9558 28.9943 42.9111C29.0739 42.9558 29.2216 42.7771 29.2216 42.7771C43.1107 34.6216 57.9886 42.6765 57.9886 42.6765V5.78705H33.768H33.7793Z" fill="#DC5000"/>
<path d="M33.7793 5.13904L29.0057 9.57427L24.232 5.13904H0V42.0285C0 42.0285 14.8779 33.9736 28.767 42.1291C28.767 42.1291 28.9261 42.3078 28.9943 42.2631C29.0739 42.3078 29.2216 42.1291 29.2216 42.1291C43.1107 33.9736 57.9886 42.0285 57.9886 42.0285V5.13904H33.768H33.7793Z" fill="#E66400"/>
<path d="M29.2329 10.6692C17.7079 -3.26215 1.93213 4.20065 1.93213 4.20065V39.1909C19.5719 32.8229 29.2216 41.0901 29.2216 41.0901C29.2216 41.0901 40.2919 33.214 56.511 39.1909V4.20065C56.511 4.20065 40.7465 -3.26215 29.2216 10.6692H29.2329Z" fill="#C8C8BE"/>
<path d="M1.93213 36.9789V1.99978C1.93213 1.99978 17.6966 -5.46302 29.2216 8.46828V38.8893C29.2216 38.8893 17.3215 29.4602 1.93213 36.99V36.9789Z" fill="#DCDCD2"/>
<path d="M56.5223 36.9789V1.99978C56.5223 1.99978 40.7579 -5.46302 29.2329 8.46828V38.8893C29.2329 38.8893 41.133 29.4602 56.5223 36.99V36.9789Z" fill="#F0F0E6"/>
<path d="M8.42212 0.357478V18.3553L11.991 14.2888L15.253 18.3553V0.357478C15.253 0.357478 11.1045 -0.435724 8.42212 0.357478Z" fill="#D54A00"/>
<path d="M32.677 11.6188L31.8813 10.8702C31.9609 10.792 39.7352 2.94939 52.0558 5.329L51.8398 6.4015C40.133 4.13361 32.7452 11.5517 32.677 11.6188Z" fill="#646464"/>
<path d="M32.677 16.6126L31.8813 15.8641C31.9609 15.7859 39.7352 7.94323 52.0558 10.3228L51.8398 11.3953C40.133 9.12744 32.7452 16.5456 32.677 16.6126Z" fill="#646464"/>
<path d="M32.677 21.6064L31.8813 20.8579C31.9609 20.7797 39.7352 12.9371 52.0558 15.3167L51.8398 16.3892C40.133 14.1213 32.7452 21.5394 32.677 21.6064Z" fill="#646464"/>
<path d="M50.885 30.3875C50.8623 31.0019 50.8282 31.5828 50.7941 32.0856C50.7486 32.7224 50.6804 33.2586 50.6577 33.6385C50.6236 34.0183 50.5895 34.2306 50.5895 34.2306C50.5895 34.2306 50.5554 34.0183 50.5213 33.6385C50.4872 33.2698 50.419 32.7335 50.3849 32.0856C50.294 30.8902 50.2372 29.315 50.2372 27.7174C49.4075 25.6282 47.5662 26.0528 46.8615 26.3097C46.8501 28.2201 46.7933 30.097 46.7024 31.5382C46.6569 32.3425 46.5887 33.0128 46.566 33.4821C46.5319 33.9513 46.4978 34.2194 46.4978 34.2194C46.4978 34.2194 46.4637 33.9513 46.4296 33.4821C46.3955 33.0128 46.3273 32.3425 46.2932 31.5382C46.2023 29.9294 46.1341 27.7844 46.1341 25.6394C46.1341 25.1032 46.1341 24.5669 46.1455 24.0307C45.3044 22.2767 43.5199 22.5001 42.7584 22.7012C42.7584 23.271 42.7584 23.8519 42.7698 24.444C42.7698 25.6618 42.7584 26.8907 42.7243 28.0414C42.7016 29.1921 42.6448 30.2534 42.6107 31.1807C42.5766 32.0967 42.5084 32.8676 42.4743 33.3927C42.4288 33.9289 42.4061 34.2306 42.4061 34.2306C42.4061 34.2306 42.3834 33.9289 42.3379 33.3927C42.3038 32.8564 42.2356 32.0967 42.2015 31.1807C42.1674 30.2646 42.1106 29.1921 42.0878 28.0414C42.0537 26.8907 42.0537 25.6729 42.0424 24.444C42.0424 23.2151 42.0537 21.9974 42.0878 20.8467C42.1106 19.696 42.1674 18.6235 42.2015 17.7074C42.2129 17.3834 42.2356 17.0818 42.247 16.8025C41.9855 15.339 41.3718 14.3335 40.0079 14.3335C37.246 14.3335 37.6552 24.2094 37.7461 26.522C37.837 28.8346 37.8825 34.8115 37.8825 34.8115L36.5868 28.0637C35.9389 28.019 33.4725 30.2199 33.7226 36.8113C33.984 43.4027 39.9965 47.0112 39.9965 47.0112H50.6463C50.6463 47.0112 53.7833 42.1179 53.7833 36.6772C53.7833 30.8008 51.6579 30.3651 50.9078 30.3875H50.885Z" fill="#DCA000"/>
</g>
<defs>
<clipPath id="clip0_144_2915">
<rect width="58" height="47" fill="white"/>
</clipPath>
</defs>
</svg>
