<svg width="251" height="234" viewBox="0 0 251 234" fill="none" xmlns="http://www.w3.org/2000/svg">
<mask id="mask0_144_2862" style="mask-type:alpha" maskUnits="userSpaceOnUse" x="0" y="0" width="251" height="227">
<rect x="0.5" y="0.5" width="250" height="226" rx="10.5" fill="white" stroke="#EEEEEE"/>
</mask>
<g mask="url(#mask0_144_2862)">
<path d="M92.6513 157.73C94.967 159.418 96.9557 159.648 97.0618 155.697C97.2562 148.971 90.9896 143.756 87.3569 138.886C86.252 137.401 84.1484 137.101 82.6635 138.205L81.7001 138.93C80.2152 140.035 79.9147 142.139 81.0195 143.624C82.5398 145.656 84.0158 147.592 85.3947 149.758C86.1725 150.995 89.6815 155.565 92.6513 157.73Z" fill="#F0B486"/>
<path d="M87.3215 148.087C87.8518 147.035 89.0008 146.478 91.1398 146.823C96.4519 147.68 101.941 153.267 104.248 157.907C106.307 162.061 108.402 171.351 103.549 174.426C96.2044 179.067 90.9277 163.405 89.4958 159.1C88.6738 156.634 85.9868 150.765 87.3303 148.096L87.3215 148.087Z" fill="#F0B486"/>
<path d="M93.9329 154.089C96.116 152.613 96.2044 146.691 93.1551 142.165C90.1146 137.649 85.377 136.402 83.1938 137.87L93.9329 154.08V154.089Z" fill="#F0B486"/>
<path d="M93.0579 163.37C93.4822 161.84 94.861 160.815 97.7778 160.727C104.999 160.497 113.67 166.454 117.895 171.996C121.678 176.946 126.813 188.675 121.192 193.96C112.689 201.959 101.729 182.656 98.7235 177.335C97.0088 174.285 91.9619 167.232 93.0491 163.37H93.0579Z" fill="#F0B486"/>
<path d="M112.963 167.851L106.396 166.039C124.656 141.44 164.43 183.522 145.86 204.045C137.49 213.299 120.767 205.601 114.227 197.381C109.843 191.865 107.492 185.749 107.447 180.817C107.359 180.269 107.306 179.73 107.288 179.199C107.076 174.32 109.445 170.431 112.963 167.842V167.851Z" fill="#F4CCAA"/>
<path d="M156.071 172.399L118.126 203.601L172.726 270L210.671 238.799L156.071 172.399Z" fill="#F49A46"/>
<path d="M129.747 158.234C133.99 165.367 132.779 173.914 127.051 177.326C121.315 180.738 113.228 177.724 108.985 170.591C104.743 163.458 105.953 154.911 111.681 151.499C117.417 148.087 125.505 151.101 129.747 158.234Z" fill="#F0B486"/>
<path d="M125.045 158.278L108.251 179.12L71.4294 115.428L90.7067 92.5626L125.045 158.278Z" fill="#EB5546"/>
<path d="M101.101 87.2681L138.789 153.664L108.163 179.191L71.4736 115.41L101.101 87.2681Z" fill="#C3C5EA"/>
<path d="M108.852 87.0208L144.879 153.7L108.517 180.119L71.8271 116.339L108.852 87.0208Z" fill="#DADBFA"/>
<path d="M108.835 181.047C108.879 181.029 108.932 181.012 108.976 180.985L155.6 156.237L153.762 154.982L109.109 177.626L127.317 156.069L124.868 155.715L106.254 177.688C105.671 178.501 105.706 179.615 106.342 180.384C106.952 181.118 107.951 181.383 108.835 181.047Z" fill="#B84235"/>
<path d="M118.964 87.7722L155.662 156.193L108.19 179.253L71.5002 115.473L118.964 87.7722Z" fill="#EB5546"/>
<path d="M74.2843 114.306L110.894 178.112L106.112 180.057L69.6174 116.445L74.2843 114.306Z" fill="#B84235"/>
<path d="M72.2869 117.541C72.331 117.523 72.3841 117.506 72.4283 117.479L118.929 87.7368L117.373 87.7721L72.5609 114.111L90.7686 92.5538L89.8847 92.7306L69.706 114.182C69.1138 114.995 69.158 116.109 69.7943 116.878C70.4042 117.612 71.403 117.877 72.2869 117.541Z" fill="#B84235"/>
<mask id="mask1_144_2862" style="mask-type:luminance" maskUnits="userSpaceOnUse" x="71" y="87" width="85" height="93">
<path d="M118.964 87.7722L155.662 156.193L108.19 179.253L71.5002 115.473L118.964 87.7722Z" fill="white"/>
</mask>
<g mask="url(#mask1_144_2862)">
<g style="mix-blend-mode:multiply" opacity="0.4">
<path d="M73.8424 113.086L134.918 183.398L98.9885 197.098L60.9556 118.425L73.8424 113.086Z" fill="#EB5546"/>
</g>
</g>
<path d="M91.5906 152.224C91.8734 151.95 92.2093 151.711 92.6159 151.534C96.7171 149.74 99.8636 157.907 101.101 160.417C102.789 163.847 105.008 166.931 104.76 170.926C104.575 173.923 103.337 178.033 100.111 179.102C92.554 181.621 91.2901 166.516 90.9542 162.362C90.7509 159.79 89.2749 154.495 91.5818 152.224H91.5906Z" fill="#F4CCAA"/>
<path d="M88.002 142.086C88.002 142.086 88.0462 142.051 88.0727 142.042C91.4403 139.717 94.7459 144.508 96.1425 146.903C98.2461 150.509 99.5807 156.908 98.4494 161.01C97.4859 164.501 95.7624 163.865 94.0742 161.849C91.9087 159.268 89.7874 154.425 89.3632 153.161C88.4263 150.359 84.4312 144.667 88.002 142.095V142.086Z" fill="#F4CCAA"/>
<mask id="mask2_144_2862" style="mask-type:luminance" maskUnits="userSpaceOnUse" x="86" y="141" width="19" height="45">
<path d="M104.902 168.434C104.566 164.28 102.436 160.842 99.6603 158.482L98.361 155.415C98.8913 153.337 98.8736 150.633 97.9456 148.096C96.2309 143.403 92.2888 141.255 90.0173 142.086C89.8317 142.13 89.646 142.183 89.4693 142.263L88.4528 142.696C86.8884 143.359 86.1548 145.162 86.8177 146.726L90.4327 155.282L92.8633 185.395C98.7057 184.927 105.582 176.822 104.902 168.443V168.434Z" fill="white"/>
</mask>
<g mask="url(#mask2_144_2862)">
<path opacity="0.7" d="M84.3782 146.178L85.8984 150.315C86.4818 151.897 87.9137 152.834 89.098 152.401L89.867 152.118C91.0514 151.685 91.5375 150.041 90.9542 148.459L89.4339 144.322L84.3782 146.178Z" fill="white"/>
</g>
<path d="M92.8104 170.926C92.9871 170.219 93.3318 169.503 93.9063 168.77C96.2663 165.729 100.111 161.743 103.567 166.065C105.741 168.788 107.474 171.757 110.373 173.799C113.36 175.903 116.383 178.006 119.406 180.119C124.488 183.654 130.278 192.679 123.649 197.593C117.4 202.224 110.673 195.145 106.864 190.743C104.769 188.33 102.33 186.103 100.323 183.637C99.024 182.037 97.6274 180.516 96.3193 178.926C94.2776 176.424 92.0944 173.799 92.8104 170.935V170.926Z" fill="#F4CCAA"/>
<g style="mix-blend-mode:multiply" opacity="0.4">
<path d="M129.591 194.167L118.122 203.598L172.721 269.998L184.191 260.566L129.591 194.167Z" fill="#F49A46"/>
</g>
<path opacity="0.4" d="M119.839 115.313L114.987 106.271L95.9304 117.39L101.048 126.282L119.839 115.313Z" fill="white"/>
</g>
</svg>
