<svg width="88" height="91" viewBox="0 0 88 91" fill="none" xmlns="http://www.w3.org/2000/svg">
<g clip-path="url(#clip0_144_2843)">
<path d="M73.3204 0C75.635 3.80797 72.9815 15.5722 69.1137 19.8362C62.5134 27.1095 50.9728 31.6235 44.001 31.6628C37.0293 31.6235 25.4863 27.1095 18.8883 19.8362C15.0182 15.5722 12.367 3.80797 14.6793 0C14.6793 0 -9.79031 19.2297 4.45499 54.0754C14.3612 78.3052 43.6272 90.8403 43.9964 90.9977V91.0023H44.001H44.0057V90.9977C44.3748 90.8403 73.6385 78.3052 83.5447 54.0754C97.7923 19.2297 73.3204 0 73.3204 0Z" fill="url(#paint0_linear_144_2843)"/>
<path d="M75.8975 5.92143C77.8941 22.9913 54.8941 34.1143 43.6947 33.9916C43.6761 33.9916 43.6552 33.9916 43.6366 33.9916C43.6181 33.9916 43.5972 33.9916 43.5786 33.9916C32.3792 34.1143 9.37921 22.9913 11.3758 5.92143C11.4895 4.94687 -23.1579 52.4435 43.5786 88.6388C43.5786 88.6388 43.6181 88.6805 43.6366 88.6712C43.6575 88.6828 43.6947 88.6388 43.6947 88.6388C110.431 52.4435 75.7837 4.94919 75.8975 5.92143Z" fill="url(#paint1_radial_144_2843)"/>
<path opacity="0.5" d="M66.5112 53.3601C77.1557 49.6957 78.804 34.1536 78.804 34.1536C76.1434 38.9547 69.5524 40.3459 69.5524 40.3459C79.9439 31.3758 75.7627 20.8871 75.7627 20.8871C74.4951 28.216 61.4431 35.4175 56.6281 37.1861C51.8131 38.9547 53.5868 42.1145 53.5868 42.1145C57.8957 41.6098 59.3374 47.7373 58.5295 50.3276C57.2944 54.2838 53.5799 56.2514 49.2547 57.7839L49.1851 57.8464C49.1851 57.8464 48.9994 57.9227 48.6813 58.0524C49.5241 57.6079 50.1857 57.2769 50.1857 57.2769L50.664 56.8787C50.0766 53.3972 51.0447 49.073 48.0475 46.985C46.9424 46.2141 49.8398 44.6956 48.6117 41.9872C47.5577 44.765 43.6969 44.258 43.0747 44.1955C40.5186 43.9409 39.374 45.2558 38.6683 46.4248C38.9701 46.2025 39.3973 46.0451 40.0009 46.0567C41.9046 46.0914 42.3434 45.6933 42.5407 45.4919C42.7357 45.2905 40.6741 50.7721 38.0298 47.7674C38.0113 47.7466 38.002 47.6771 38.0089 47.5799C37.923 47.7188 37.8372 47.8392 37.7513 47.9271C36.9619 48.7142 31.6965 48.9549 35.952 52.8948C35.952 52.8948 36.1308 49.9503 38.0113 50.7744C40.4327 51.8369 39.9986 55.2514 39.2998 58.0524C34.6496 56.4783 30.5566 54.5176 29.2496 50.3276C28.4417 47.7373 29.8834 41.6098 34.1922 42.1145C34.1922 42.1145 35.9659 38.9547 31.151 37.1861C26.336 35.4175 13.284 28.216 12.0164 20.8871C12.0164 20.8871 7.8352 31.3735 18.2266 40.3459C18.2266 40.3459 11.638 38.957 8.9751 34.1536C8.9751 34.1536 10.6234 49.6957 21.2679 53.3601C21.2679 53.3601 18.6144 55.4412 13.5417 53.6865C13.5417 53.6865 17.5789 61.1173 28.8712 60.9413C28.8712 60.9413 26.4822 64.2146 19.5453 63.2863C19.5453 63.2863 24.2048 68.8605 34.7007 65.1104C34.7007 65.1104 34.3501 69.893 26.6889 68.9624C26.2106 68.9045 31.1394 73.7102 40.5418 70.3096C41.1988 70.8745 42.0624 71.7356 41.8814 72.5759C41.5819 73.9764 36.4651 73.3768 38.7728 79.377C38.7728 79.377 39.0978 75.9533 41.3845 76.7705C41.8698 76.9441 43.3834 77.9209 40.9992 79.5298C39.9359 80.2474 41.1895 82.9743 43.8199 84.1572V84.2197C43.8431 84.2105 43.8663 84.1989 43.8895 84.1873C43.9128 84.1989 43.9383 84.2081 43.9615 84.2197V84.1572C46.5919 82.9766 47.8432 80.2474 46.7822 79.5298C44.398 77.9209 45.914 76.9418 46.3969 76.7705C48.6836 75.951 49.0087 79.377 49.0087 79.377C51.3163 73.3768 46.1995 73.9764 45.9 72.5759C45.719 71.7356 46.5826 70.8745 47.2396 70.3096C56.6421 73.7102 61.5708 68.9045 61.0926 68.9624C53.4313 69.8906 53.0807 65.1104 53.0807 65.1104C63.5767 68.8605 68.2361 63.2863 68.2361 63.2863C61.3015 64.2146 58.9103 60.9413 58.9103 60.9413C70.2025 61.1196 74.2397 53.6865 74.2397 53.6865C69.1671 55.4412 66.5135 53.3601 66.5135 53.3601H66.5112Z" fill="#1E1E1E"/>
<path d="M66.3883 51.8231C77.0328 48.1586 78.6812 33.5402 78.6812 33.5402C75.9951 37.6977 69.4296 38.8089 69.4296 38.8089C79.8211 29.8387 75.6399 19.35 75.6399 19.35C74.3723 26.6789 61.3203 33.8805 56.5053 35.6491C51.6903 37.4176 53.464 40.5774 53.464 40.5774C57.7729 40.0728 59.1543 46.1817 58.4067 48.7906C57.0393 53.5685 49.1482 56.9528 45.7958 57.2492C45.7958 57.2492 49.1041 55.6473 50.3972 54.1773C50.1163 50.9457 50.5922 47.3091 47.9224 45.4502C46.8173 44.6794 49.7147 43.1608 48.4865 40.4524C47.4325 43.2303 43.5717 42.7233 42.9495 42.6608C40.3935 42.4062 39.2489 43.721 38.5431 44.89C38.845 44.6678 39.2721 44.5104 39.8757 44.522C41.7794 44.5567 42.2182 44.1585 42.4156 43.9571C42.6106 43.7558 40.549 49.2374 37.9047 46.2327C37.8861 46.2118 37.8768 46.1424 37.8838 46.0452C37.7979 46.1841 37.712 46.3044 37.6261 46.3924C36.8368 47.1795 31.5714 47.4202 35.8269 51.3601C35.8269 51.3601 36.0056 48.4133 37.8861 49.2397C40.3076 50.3022 39.8734 53.7167 39.1746 56.5176C34.5245 54.9435 30.4315 52.9828 29.1244 48.7929C28.3165 46.2026 29.7582 40.0751 34.0671 40.5797C34.0671 40.5797 35.8408 37.4199 31.0258 35.6514C26.2108 33.8828 13.1588 26.6812 11.8913 19.3524C11.8913 19.3524 7.71006 29.8387 18.1015 38.8112C18.1015 38.8112 11.6637 38.295 8.86157 33.5842C8.86157 33.5842 10.4983 48.161 21.1428 51.8254C21.1428 51.8254 18.4892 54.844 13.4165 53.0893C13.4165 53.0893 17.4538 59.5849 28.746 59.4066C28.746 59.4066 26.3571 63.5711 19.4202 62.6428C19.4202 62.6428 24.0796 67.3281 34.5755 63.578C34.5755 63.578 34.2668 68.4902 26.5823 68.3142C26.0994 68.3027 31.0142 72.1778 40.4167 68.7772C41.0737 69.342 41.9373 70.2055 41.7562 71.0435C41.4544 72.444 36.34 71.8444 38.6476 77.8446C38.6476 77.8446 38.9726 74.4209 41.2594 75.238C41.7446 75.4116 43.2583 76.3885 40.874 77.9974C39.8107 78.715 41.0644 81.4419 43.6948 82.6225V82.685C43.718 82.6757 43.7412 82.6641 43.7644 82.6526C43.7899 82.6618 43.8132 82.6734 43.8364 82.685V82.6225C46.4667 81.4419 47.7181 78.715 46.6548 77.9974C44.2705 76.3885 45.7865 75.4093 46.2694 75.238C48.5562 74.4186 48.8812 77.8446 48.8812 77.8446C51.1889 71.8444 46.0721 72.444 45.7726 71.0435C45.5915 70.2032 46.4551 69.3397 47.1121 68.7772C56.5146 72.1778 61.448 68.3605 60.9651 68.3582C53.4478 68.3374 52.9533 63.5757 52.9533 63.5757C63.4492 67.3258 68.1086 62.6544 68.1086 62.6544C60.1827 62.4553 58.7828 59.4066 58.7828 59.4066C70.075 59.5849 74.1123 53.0893 74.1123 53.0893C68.9792 54.1981 66.386 51.8254 66.386 51.8254L66.3883 51.8231Z" fill="url(#paint2_linear_144_2843)"/>
<path d="M66.3882 52.7652C77.0327 49.1008 78.6811 33.5587 78.6811 33.5587C76.0205 38.3598 69.4295 39.751 69.4295 39.751C79.821 30.7809 75.6398 20.2922 75.6398 20.2922C74.3722 27.6211 61.3202 34.8226 56.5052 36.5912C51.6902 38.3598 53.4639 41.5196 53.4639 41.5196C57.7728 41.0149 59.1541 47.1239 58.4066 49.7327C57.0392 54.5106 49.1481 57.895 45.7957 58.1913C45.7957 58.1913 49.104 56.5894 50.3971 55.1195C50.1162 51.8879 50.5921 48.2512 47.9223 46.3924C46.8172 45.6215 49.7145 44.103 48.4864 41.3946C47.4324 44.1724 43.5716 43.6655 42.9494 43.603C40.3933 43.3483 39.2488 44.6632 38.543 45.8322C38.8448 45.61 39.272 45.4525 39.8756 45.4641C41.7793 45.4988 42.2181 45.1007 42.4155 44.8993C42.6105 44.6979 40.5489 50.1795 37.9046 47.1748C37.886 47.154 37.8767 47.0845 37.8837 46.9873C37.7978 47.1262 37.7119 47.2466 37.626 47.3345C36.8367 48.1216 31.5713 48.3623 35.8268 52.3022C35.8268 52.3022 36.0055 49.3577 37.886 50.1818C40.3074 51.2444 39.8733 54.6588 39.1745 57.4598C34.5244 55.8857 30.4314 53.925 29.1243 49.7327C28.3164 47.1424 29.7581 41.0149 34.067 41.5196C34.067 41.5196 35.8407 38.3598 31.0257 36.5912C26.2107 34.8226 13.1587 27.6211 11.8911 20.2922C11.8911 20.2922 7.70995 30.7786 18.1014 39.751C18.1014 39.751 11.5127 38.3621 8.84985 33.5587C8.84985 33.5587 10.4982 49.1008 21.1427 52.7652C21.1427 52.7652 18.4891 54.8463 13.4164 53.0916C13.4164 53.0916 17.4537 60.5224 28.7459 60.3464C28.7459 60.3464 26.357 63.6197 19.4201 62.6914C19.4201 62.6914 24.0795 68.2656 34.5754 64.5155C34.5754 64.5155 34.2249 69.2981 26.5636 68.3675C26.0854 68.3096 31.0141 73.1153 40.4166 69.7147C41.0736 70.2796 41.9372 71.143 41.7561 71.981C41.4543 73.3815 36.3398 72.7819 38.6475 78.7821C38.6475 78.7821 38.9725 75.3584 41.2593 76.1755C41.7445 76.3492 43.2582 77.326 40.8739 78.9372C39.8106 79.6548 41.0643 82.3817 43.6947 83.5623V83.6248C43.7179 83.6155 43.7411 83.604 43.7643 83.5924C43.7898 83.604 43.8131 83.6132 43.8363 83.6248V83.5623C46.4666 82.3817 47.718 79.6548 46.6547 78.9372C44.2704 77.3283 45.7864 76.3492 46.2693 76.1755C48.5561 75.3561 48.8811 78.7821 48.8811 78.7821C51.1888 72.7819 46.072 73.3815 45.7725 71.981C45.5914 71.1407 46.455 70.2796 47.112 69.7147C56.5145 73.1153 61.4432 68.3096 60.965 68.3675C53.3037 69.2957 52.9532 64.5155 52.9532 64.5155C63.4491 68.2656 68.1085 62.6914 68.1085 62.6914C61.1739 63.6197 58.7827 60.3464 58.7827 60.3464C70.0749 60.5247 74.1122 53.0916 74.1122 53.0916C69.0395 54.8463 66.3859 52.7652 66.3859 52.7652H66.3882Z" fill="url(#paint3_linear_144_2843)"/>
<path d="M76.0114 6.00252C75.9325 5.91686 75.893 5.88909 75.8954 5.92381C75.9464 6.36827 75.9789 6.80578 75.9975 7.24329C76.0138 6.83356 76.023 6.42151 76.0114 6.00483V6.00252Z" fill="url(#paint4_linear_144_2843)"/>
<path d="M11.2713 7.24095C11.2899 6.80575 11.3201 6.36593 11.3735 5.92147C11.3781 5.88675 11.3363 5.91684 11.2574 6.00018C11.2458 6.41685 11.2527 6.8289 11.2713 7.23863V7.24095Z" fill="url(#paint5_linear_144_2843)"/>
<path d="M43.6925 87.1249C43.6925 87.1249 43.653 87.1666 43.6344 87.1573C43.6158 87.1689 43.5764 87.1249 43.5764 87.1249C11.3225 69.6314 2.75115 49.499 2.49113 33.4731C2.23112 49.7304 10.2987 70.5898 43.5787 88.6388C43.5787 88.6388 43.6182 88.6805 43.6367 88.6712C43.6576 88.6828 43.6948 88.6388 43.6948 88.6388C76.9748 70.5898 85.0424 49.7304 84.7823 33.4731C84.5223 49.499 75.951 69.6314 43.6948 87.1272L43.6925 87.1249Z" fill="url(#paint6_linear_144_2843)"/>
<path d="M84.78 34.9569C85.047 17.8407 75.8373 5.41911 75.8953 5.92144C75.9533 6.42609 75.9905 6.92378 76.0067 7.41685C77.0097 8.50716 84.5548 19.7158 84.78 34.9546V34.9569Z" fill="url(#paint7_linear_144_2843)"/>
<path d="M43.5763 35.4129C43.5949 35.4129 43.6158 35.4129 43.6344 35.4129C43.653 35.4129 43.6738 35.4129 43.6924 35.4129C54.5923 35.5333 76.6637 24.9983 75.9997 8.7016C75.3752 24.1881 54.2719 34.1073 43.6924 33.9916C43.6738 33.9916 43.653 33.9916 43.6344 33.9916C43.6158 33.9916 43.5949 33.9916 43.5763 33.9916C32.9968 34.1073 11.8936 24.1881 11.269 8.7016C10.6051 24.9983 32.6765 35.5333 43.5763 35.4129Z" fill="url(#paint8_linear_144_2843)"/>
<path d="M11.2622 7.41685C11.2784 6.92378 11.3132 6.42377 11.3736 5.92144C11.4316 5.41911 2.22187 17.8407 2.48885 34.9569C2.71172 19.7181 10.2592 8.50947 11.2622 7.41917V7.41685Z" fill="url(#paint9_linear_144_2843)"/>
</g>
<defs>
<linearGradient id="paint0_linear_144_2843" x1="-0.000148594" y1="45.5012" x2="87.9998" y2="45.5012" gradientUnits="userSpaceOnUse">
<stop stop-color="#853A19"/>
<stop offset="0.07" stop-color="#B97216"/>
<stop offset="0.18" stop-color="#FFE343"/>
<stop offset="0.23" stop-color="#B26E16"/>
<stop offset="0.29" stop-color="#E89F2E"/>
<stop offset="0.38" stop-color="#FFE84D"/>
<stop offset="0.45" stop-color="#DD9324"/>
<stop offset="0.53" stop-color="#DD9B24"/>
<stop offset="0.6" stop-color="#A96E17"/>
<stop offset="0.71" stop-color="#C38C21"/>
<stop offset="0.82" stop-color="#F4B630"/>
<stop offset="0.91" stop-color="#BF8335"/>
<stop offset="1" stop-color="#853A19"/>
</linearGradient>
<radialGradient id="paint1_radial_144_2843" cx="0" cy="0" r="1" gradientUnits="userSpaceOnUse" gradientTransform="translate(45.0946 54.9458) scale(82.7021 82.4627)">
<stop stop-color="#D48B00"/>
<stop offset="0.15" stop-color="#A66400"/>
<stop offset="0.3" stop-color="#7A3E00"/>
<stop offset="0.99" stop-color="#3D1C00"/>
</radialGradient>
<linearGradient id="paint2_linear_144_2843" x1="43.7714" y1="21.9959" x2="43.7714" y2="55.969" gradientUnits="userSpaceOnUse">
<stop stop-color="#FCCB00"/>
<stop offset="0.25" stop-color="#FFFAD2"/>
<stop offset="0.27" stop-color="#FEF6C0"/>
<stop offset="0.29" stop-color="#FEEC93"/>
<stop offset="0.33" stop-color="#FDDB48"/>
<stop offset="0.44" stop-color="#B36B30"/>
<stop offset="0.5" stop-color="#E8CEA0"/>
<stop offset="0.6" stop-color="#C9961A"/>
<stop offset="0.62" stop-color="#CF9E21"/>
<stop offset="0.76" stop-color="#FDE05D"/>
<stop offset="0.87" stop-color="#F2DC8E"/>
<stop offset="0.93" stop-color="#C98C37"/>
<stop offset="1" stop-color="#FFFAD2"/>
</linearGradient>
<linearGradient id="paint3_linear_144_2843" x1="-2.3913" y1="-8.67384" x2="158.794" y2="154.263" gradientUnits="userSpaceOnUse">
<stop stop-color="#FCCB00"/>
<stop offset="0.25" stop-color="#FFFA7F"/>
<stop offset="0.28" stop-color="#FEF06D"/>
<stop offset="0.33" stop-color="#FDDB48"/>
<stop offset="0.44" stop-color="#B36B30"/>
<stop offset="0.5" stop-color="#E8CEA0"/>
<stop offset="0.6" stop-color="#C9961A"/>
<stop offset="0.62" stop-color="#CF9E21"/>
<stop offset="0.76" stop-color="#FDE05D"/>
<stop offset="0.87" stop-color="#F2DC8E"/>
<stop offset="0.93" stop-color="#C98C37"/>
<stop offset="1" stop-color="#FFFAD2"/>
</linearGradient>
<linearGradient id="paint4_linear_144_2843" x1="75.958" y1="71.2403" x2="75.958" y2="115.943" gradientUnits="userSpaceOnUse">
<stop stop-color="#FCCB00"/>
<stop offset="0.25" stop-color="#FFFAD2"/>
<stop offset="0.27" stop-color="#FEF6C0"/>
<stop offset="0.29" stop-color="#FEEC93"/>
<stop offset="0.33" stop-color="#FDDB48"/>
<stop offset="0.44" stop-color="#B36B30"/>
<stop offset="0.5" stop-color="#E8CEA0"/>
<stop offset="0.6" stop-color="#C9961A"/>
<stop offset="0.62" stop-color="#CF9E21"/>
<stop offset="0.76" stop-color="#FDE05D"/>
<stop offset="0.87" stop-color="#F2DC8E"/>
<stop offset="0.93" stop-color="#C98C37"/>
<stop offset="1" stop-color="#FFFAD2"/>
</linearGradient>
<linearGradient id="paint5_linear_144_2843" x1="11.3131" y1="71.2403" x2="11.3131" y2="115.943" gradientUnits="userSpaceOnUse">
<stop stop-color="#FCCB00"/>
<stop offset="0.25" stop-color="#FFFAD2"/>
<stop offset="0.27" stop-color="#FEF6C0"/>
<stop offset="0.29" stop-color="#FEEC93"/>
<stop offset="0.33" stop-color="#FDDB48"/>
<stop offset="0.44" stop-color="#B36B30"/>
<stop offset="0.5" stop-color="#E8CEA0"/>
<stop offset="0.6" stop-color="#C9961A"/>
<stop offset="0.62" stop-color="#CF9E21"/>
<stop offset="0.76" stop-color="#FDE05D"/>
<stop offset="0.87" stop-color="#F2DC8E"/>
<stop offset="0.93" stop-color="#C98C37"/>
<stop offset="1" stop-color="#FFFAD2"/>
</linearGradient>
<linearGradient id="paint6_linear_144_2843" x1="43.6344" y1="71.2426" x2="43.6344" y2="115.945" gradientUnits="userSpaceOnUse">
<stop stop-color="#FCCB00"/>
<stop offset="0.25" stop-color="#FFFAD2"/>
<stop offset="0.27" stop-color="#FEF6C0"/>
<stop offset="0.29" stop-color="#FEEC93"/>
<stop offset="0.33" stop-color="#FDDB48"/>
<stop offset="0.44" stop-color="#B36B30"/>
<stop offset="0.5" stop-color="#E8CEA0"/>
<stop offset="0.6" stop-color="#C9961A"/>
<stop offset="0.62" stop-color="#CF9E21"/>
<stop offset="0.76" stop-color="#FDE05D"/>
<stop offset="0.87" stop-color="#F2DC8E"/>
<stop offset="0.93" stop-color="#C98C37"/>
<stop offset="1" stop-color="#FFFAD2"/>
</linearGradient>
<linearGradient id="paint7_linear_144_2843" x1="80.3411" y1="62.1613" x2="80.3411" y2="9.39838" gradientUnits="userSpaceOnUse">
<stop stop-color="#FCCB00"/>
<stop offset="0.25" stop-color="#FFFAD2"/>
<stop offset="0.27" stop-color="#FEF6C0"/>
<stop offset="0.29" stop-color="#FEEC93"/>
<stop offset="0.33" stop-color="#FDDB48"/>
<stop offset="0.44" stop-color="#B36B30"/>
<stop offset="0.5" stop-color="#E8CEA0"/>
<stop offset="0.6" stop-color="#C9961A"/>
<stop offset="0.62" stop-color="#CF9E21"/>
<stop offset="0.76" stop-color="#FDE05D"/>
<stop offset="0.87" stop-color="#F2DC8E"/>
<stop offset="0.93" stop-color="#C98C37"/>
<stop offset="1" stop-color="#FFFAD2"/>
</linearGradient>
<linearGradient id="paint8_linear_144_2843" x1="43.6344" y1="62.1613" x2="43.6344" y2="9.39837" gradientUnits="userSpaceOnUse">
<stop stop-color="#FCCB00"/>
<stop offset="0.25" stop-color="#FFFAD2"/>
<stop offset="0.27" stop-color="#FEF6C0"/>
<stop offset="0.29" stop-color="#FEEC93"/>
<stop offset="0.33" stop-color="#FDDB48"/>
<stop offset="0.44" stop-color="#B36B30"/>
<stop offset="0.5" stop-color="#E8CEA0"/>
<stop offset="0.6" stop-color="#C9961A"/>
<stop offset="0.62" stop-color="#CF9E21"/>
<stop offset="0.76" stop-color="#FDE05D"/>
<stop offset="0.87" stop-color="#F2DC8E"/>
<stop offset="0.93" stop-color="#C98C37"/>
<stop offset="1" stop-color="#FFFAD2"/>
</linearGradient>
<linearGradient id="paint9_linear_144_2843" x1="6.93006" y1="62.1613" x2="6.93006" y2="9.39838" gradientUnits="userSpaceOnUse">
<stop stop-color="#FCCB00"/>
<stop offset="0.25" stop-color="#FFFAD2"/>
<stop offset="0.27" stop-color="#FEF6C0"/>
<stop offset="0.29" stop-color="#FEEC93"/>
<stop offset="0.33" stop-color="#FDDB48"/>
<stop offset="0.44" stop-color="#B36B30"/>
<stop offset="0.5" stop-color="#E8CEA0"/>
<stop offset="0.6" stop-color="#C9961A"/>
<stop offset="0.62" stop-color="#CF9E21"/>
<stop offset="0.76" stop-color="#FDE05D"/>
<stop offset="0.87" stop-color="#F2DC8E"/>
<stop offset="0.93" stop-color="#C98C37"/>
<stop offset="1" stop-color="#FFFAD2"/>
</linearGradient>
<clipPath id="clip0_144_2843">
<rect width="88" height="91" fill="white"/>
</clipPath>
</defs>
</svg>
